<?xml version="1.0" standalone="no"?>
<!DOCTYPE svg PUBLIC "-//W3C//DTD SVG 20010904//EN"
 "http://www.w3.org/TR/2001/REC-SVG-20010904/DTD/svg10.dtd">
<svg version="1.0" xmlns="http://www.w3.org/2000/svg"
 width="200.000000pt" height="200.000000pt" viewBox="0 0 200.000000 200.000000"
 preserveAspectRatio="xMidYMid meet">

<g transform="translate(0.000000,200.000000) scale(0.100000,-0.100000)"
fill="#000000" stroke="none">
<path d="M1307 1659 c-99 -23 -197 -104 -240 -197 -17 -36 -22 -66 -22 -132 0
-76 3 -92 33 -152 36 -73 86 -123 161 -160 38 -19 62 -23 141 -23 89 0 99 2
158 34 74 40 115 84 151 161 35 74 37 201 5 271 -44 95 -131 168 -231 194 -63
17 -99 17 -156 4z m207 -54 c63 -30 119 -88 150 -154 16 -35 21 -65 20 -126 0
-101 -25 -156 -100 -224 -70 -64 -131 -85 -228 -79 -174 11 -296 153 -284 327
16 220 242 351 442 256z"/>
<path d="M1300 1611 c-133 -44 -213 -149 -213 -281 0 -255 309 -392 491 -217
61 58 85 111 90 198 4 74 2 84 -27 144 -32 64 -73 105 -141 140 -39 20 -159
30 -200 16z m29 -45 c7 -8 -2 -11 -34 -12 -42 0 -43 1 -27 16 18 18 45 16 61
-4z m152 14 c16 -9 18 -18 13 -50 -5 -29 -3 -40 6 -40 8 0 10 -3 7 -7 -4 -3 3
-11 16 -18 12 -6 21 -17 20 -23 -2 -7 2 -12 9 -12 6 0 9 -3 5 -6 -3 -4 1 -13
9 -21 8 -9 13 -22 10 -29 -3 -8 0 -14 6 -14 7 0 6 -5 -2 -15 -10 -12 -10 -15
1 -16 11 0 11 -2 1 -6 -10 -4 -10 -8 -1 -19 8 -10 8 -14 1 -14 -6 0 -9 -6 -6
-14 3 -7 -2 -20 -10 -29 -8 -8 -12 -17 -9 -21 8 -8 -18 -37 -28 -30 -5 3 -6
-3 -2 -13 3 -10 3 -15 -2 -11 -4 4 -16 -2 -26 -13 -10 -12 -23 -18 -28 -14 -6
3 -11 1 -11 -5 0 -6 -4 -8 -10 -5 -5 3 -10 1 -10 -4 0 -6 -10 -9 -22 -7 -13 2
-29 -1 -35 -6 -9 -7 -13 -7 -13 0 0 6 -11 9 -25 7 -14 -1 -25 1 -25 6 0 5 -7
5 -17 2 -11 -4 -14 -3 -9 5 5 8 2 10 -8 6 -9 -3 -16 -1 -16 6 0 6 -4 8 -10 5
-5 -3 -10 2 -10 11 0 10 -3 15 -6 11 -10 -10 -36 22 -28 34 5 8 3 9 -6 4 -10
-6 -12 -4 -7 8 4 11 1 17 -7 17 -9 0 -13 9 -11 25 1 14 -1 25 -4 25 -3 0 -7
16 -7 35 -1 19 2 35 6 35 4 0 6 11 5 24 -2 13 5 29 15 36 10 7 16 20 12 28 -3
10 -1 13 6 8 7 -4 12 -1 12 9 0 9 4 14 8 11 5 -3 14 3 22 14 7 10 20 16 28 12
11 -4 13 -2 7 8 -6 10 -4 12 8 7 10 -3 17 -2 17 2 0 5 11 8 25 6 14 -1 25 2
25 8 0 6 4 6 13 -1 6 -5 22 -8 35 -6 12 2 22 -1 22 -7 0 -5 4 -8 9 -5 5 4 11
1 13 -6 3 -9 6 -9 12 0 4 8 -2 16 -18 22 -36 13 -35 50 2 59 2 1 12 -4 23 -9z
m-209 -52 c-7 -7 -12 -8 -12 -2 0 14 12 26 19 19 2 -3 -1 -11 -7 -17z m-88
-54 c6 2 8 1 5 -1 -3 -2 -4 -16 -1 -30 4 -22 2 -25 -12 -20 -10 4 -15 3 -11
-3 9 -15 -4 -12 -21 4 -11 11 -12 21 -4 42 8 20 14 24 22 16 6 -6 16 -9 22 -8z
m420 0 c9 -3 16 -17 16 -31 0 -18 -4 -24 -14 -20 -8 3 -17 1 -19 -6 -2 -7 -3
-4 -1 6 1 10 -4 21 -11 24 -11 4 -12 8 -2 19 14 16 12 15 31 8z m-456 -184
c-3 -16 0 -30 5 -30 5 0 6 -7 3 -16 -3 -8 -2 -13 3 -10 4 3 13 -5 19 -18 9
-20 8 -24 -6 -21 -9 2 -20 4 -24 4 -5 1 -7 4 -7 9 1 4 0 10 -1 15 -1 4 -4 12
-5 17 -1 6 -3 11 -5 13 -5 7 -9 44 -5 55 9 25 27 12 23 -18z m475 4 c-17 -13
-17 -13 2 -14 l20 -1 -20 -9 c-11 -5 -15 -9 -9 -9 17 -1 12 -31 -5 -32 -10 0
-11 -3 -4 -5 17 -7 -6 -56 -23 -50 -8 3 -11 -1 -7 -10 4 -10 0 -12 -13 -7 -11
4 -15 2 -11 -4 4 -5 -1 -19 -9 -29 -9 -10 -13 -12 -9 -4 4 10 2 9 -8 -2 -16
-20 -37 -24 -37 -7 0 5 5 7 10 4 6 -3 10 -2 10 4 0 18 64 76 80 73 10 -2 11 0
3 5 -17 12 15 123 34 116 11 -4 10 -8 -4 -19z m-416 -127 c4 -8 16 -18 26 -24
15 -8 16 -11 5 -21 -11 -9 -21 -4 -47 23 -29 31 -30 35 -12 35 11 0 24 -6 28
-13z m73 -56 c0 -5 6 -9 13 -8 34 1 47 -5 46 -20 0 -13 -2 -14 -6 -4 -4 9 -8
10 -12 3 -5 -8 -18 -7 -44 2 -28 9 -34 15 -25 24 14 14 28 16 28 3z m174 -31
c-5 -4 -21 -10 -37 -14 -21 -5 -29 -2 -34 11 -6 15 -7 15 -14 -3 -7 -17 -8
-17 -8 3 -1 19 4 22 27 19 15 -1 36 0 47 4 21 8 34 -6 19 -20z"/>
<path d="M1341 1489 c-114 -24 -168 -170 -97 -263 71 -94 209 -92 273 3 67
100 15 233 -103 259 -21 4 -54 5 -73 1z m68 -40 c18 -6 38 -24 46 -40 20 -37
1 -49 -19 -12 l-15 28 -1 -28 c0 -16 -5 -27 -12 -26 -30 4 -91 -2 -85 -7 3 -4
50 -6 103 -5 86 2 96 0 90 -14 -3 -9 -6 -37 -6 -61 0 -24 -5 -44 -10 -44 -7 0
-10 19 -9 45 2 24 1 47 -2 49 -3 3 -20 -4 -38 -15 -31 -19 -32 -21 -17 -38 9
-10 16 -21 16 -24 0 -4 -29 -7 -65 -7 -64 0 -75 6 -54 27 7 7 8 17 2 27 -7 13
-12 9 -27 -19 -23 -41 -17 -50 29 -47 30 2 35 -1 36 -20 2 -22 2 -22 6 -2 3
18 12 22 49 22 41 1 45 -1 42 -21 -3 -20 -9 -22 -85 -25 -67 -2 -83 0 -83 12
0 7 -11 17 -24 20 -29 7 -43 36 -18 36 11 0 25 14 35 35 l17 35 -25 0 c-30 0
-34 26 -5 35 11 4 20 12 19 18 -4 34 3 46 31 52 16 4 32 11 35 16 8 11 6 11
44 -2z"/>
<path d="M1348 1423 c7 -3 16 -2 19 1 4 3 -2 6 -13 5 -11 0 -14 -3 -6 -6z"/>
<path d="M1373 1283 c9 -2 23 -2 30 0 6 3 -1 5 -18 5 -16 0 -22 -2 -12 -5z"/>
<path d="M1358 1263 c12 -2 32 -2 45 0 12 2 2 4 -23 4 -25 0 -35 -2 -22 -4z"/>
<path d="M1331 1214 c0 -11 3 -14 6 -6 3 7 2 16 -1 19 -3 4 -6 -2 -5 -13z"/>
<path d="M1390 1080 c0 -5 5 -10 11 -10 5 0 7 5 4 10 -3 6 -8 10 -11 10 -2 0
-4 -4 -4 -10z"/>
<path d="M282 1323 l3 -338 318 -3 317 -2 0 340 0 340 -320 0 -320 0 2 -337z
m270 187 c23 -33 45 -60 49 -60 4 0 27 27 50 60 l42 60 68 0 69 0 0 -44 c0
-35 -4 -45 -20 -49 -17 -4 -20 -14 -20 -70 0 -57 2 -65 21 -70 17 -5 20 -12
17 -49 l-3 -43 -82 -3 -83 -3 0 51 c0 44 3 50 20 50 17 0 20 6 18 35 -1 19 -5
35 -9 35 -4 0 -24 -23 -44 -50 -21 -28 -41 -50 -46 -48 -4 2 -26 27 -49 57
l-40 55 0 -41 c0 -33 4 -42 21 -46 17 -5 20 -12 17 -49 l-3 -43 -85 0 -85 0
-3 43 c-3 37 0 44 17 49 19 5 21 13 21 74 0 62 -2 69 -20 69 -17 0 -20 7 -20
38 0 21 3 42 7 45 3 4 35 7 69 7 l63 0 43 -60z m-165 -342 c-3 -7 -5 -2 -5 12
0 14 2 19 5 13 2 -7 2 -19 0 -25z m70 9 c2 -19 1 -19 -20 -1 -12 10 -24 20
-26 21 -3 2 7 2 20 1 17 -1 26 -9 26 -21z m20 -9 c-3 -7 -5 -2 -5 12 0 14 2
19 5 13 2 -7 2 -19 0 -25z m36 17 c4 -8 2 -17 -3 -20 -6 -4 -10 -4 -10 -1 0 2
-3 11 -6 20 -3 9 -2 16 4 16 5 0 12 -7 15 -15z m43 -2 c-4 -25 -23 -27 -29 -3
-4 15 0 20 13 20 11 0 17 -6 16 -17z m71 -2 c1 -12 -8 -18 -28 -19 -23 -2 -29
2 -29 17 0 26 55 27 57 2z m20 -13 c-3 -7 -5 -2 -5 12 0 14 2 19 5 13 2 -7 2
-19 0 -25z m36 12 c-3 -11 -7 -20 -8 -20 -1 0 -5 9 -8 20 -3 12 0 20 8 20 8 0
11 -8 8 -20z m47 11 c0 -3 -4 -12 -9 -19 -6 -11 -9 -9 -13 5 -3 12 0 20 8 20
8 0 14 -3 14 -6z m91 -1 c-7 -4 -12 -11 -11 -16 0 -5 -6 -11 -16 -12 -9 -2
-14 1 -10 6 3 6 2 13 -4 17 -5 3 -10 -1 -10 -10 0 -9 -4 -14 -10 -10 -20 12 3
33 37 33 21 0 31 -3 24 -8z m-412 -76 c12 -28 6 -48 -9 -25 -6 11 -9 10 -13
-5 -2 -10 -5 -2 -6 19 -1 43 11 48 28 11z m41 -9 c0 -19 -4 -35 -9 -35 -11 0
-21 38 -14 56 10 26 23 14 23 -21z m30 18 c1 -17 1 -17 11 0 11 18 49 24 49 7
0 -5 -7 -7 -15 -4 -19 8 -33 -25 -14 -36 7 -5 18 -6 24 -3 6 4 6 2 -1 -6 -12
-13 -44 -5 -44 12 0 6 -6 3 -13 -7 -12 -17 -14 -15 -13 18 1 35 16 53 16 19z
m90 2 c0 -8 5 -15 10 -15 6 0 10 7 10 15 0 8 5 15 10 15 6 0 10 -13 10 -29 0
-17 -4 -33 -10 -36 -5 -3 -10 1 -10 9 0 9 -4 16 -10 16 -5 0 -10 -7 -10 -15 0
-8 -4 -15 -10 -15 -5 0 -10 16 -10 35 0 19 5 35 10 35 6 0 10 -7 10 -15z m70
3 c0 -9 3 -9 12 0 14 14 48 16 48 3 0 -5 -9 -7 -20 -4 -15 4 -20 0 -20 -15 0
-28 16 -36 29 -15 9 16 10 16 11 2 0 -20 -22 -30 -41 -19 -8 5 -19 4 -26 -2
-10 -8 -13 -3 -13 26 0 20 5 36 10 36 6 0 10 -5 10 -12z m115 -30 c7 -28 -8
-40 -18 -15 -4 9 -8 8 -16 -3 -14 -20 -14 0 -1 36 12 31 25 24 35 -18z m41 25
c13 -17 13 -17 14 0 0 9 4 17 8 17 5 0 7 -14 4 -30 -4 -29 -5 -30 -22 -15 -17
16 -19 15 -23 -7 -3 -15 -5 -10 -6 15 -1 41 5 46 25 20z"/>
<path d="M587 1179 c7 -7 15 -10 18 -7 3 3 -2 9 -12 12 -14 6 -15 5 -6 -5z"/>
<path d="M220 880 c-29 -29 -29 -141 0 -170 24 -24 48 -25 78 -4 19 13 22 24
22 89 0 65 -3 76 -22 89 -30 21 -54 20 -78 -4z m61 -10 c15 -9 19 -22 19 -68
0 -68 -16 -98 -48 -88 -20 7 -22 14 -22 75 0 39 5 72 12 79 15 15 15 15 39 2z"/>
<path d="M1082 884 c-36 -25 -26 -63 26 -97 46 -31 53 -51 21 -67 -23 -13 -49
2 -49 26 0 8 -5 14 -11 14 -6 0 -9 -12 -7 -27 4 -34 40 -50 81 -34 22 9 27 17
27 46 0 30 -6 38 -40 60 -41 26 -53 58 -25 69 9 3 24 -3 35 -14 25 -25 30 -25
30 0 0 19 -27 40 -52 40 -8 0 -24 -7 -36 -16z"/>
<path d="M138 803 c-2 -70 -6 -88 -18 -88 -8 0 -19 10 -25 23 -13 29 -25 28
-25 -3 0 -37 40 -54 75 -31 23 15 25 21 25 101 0 68 -3 85 -15 85 -11 0 -15
-19 -17 -87z"/>
<path d="M360 795 c0 -78 3 -95 15 -95 12 0 15 17 15 95 0 78 -3 95 -15 95
-12 0 -15 -17 -15 -95z"/>
<path d="M430 795 c0 -57 4 -95 10 -95 6 0 10 32 10 75 0 41 3 75 8 75 4 -1
22 -34 41 -75 24 -54 39 -75 53 -75 16 0 18 9 18 95 0 114 -18 128 -22 18 l-3
-78 -38 78 c-28 57 -43 77 -57 77 -19 0 -20 -7 -20 -95z"/>
<path d="M590 880 c0 -5 11 -10 25 -10 25 0 25 -1 25 -85 0 -69 3 -85 15 -85
12 0 15 16 15 85 0 84 0 85 25 85 14 0 25 5 25 10 0 6 -28 10 -65 10 -37 0
-65 -4 -65 -10z"/>
<path d="M820 795 c0 -57 4 -95 10 -95 6 0 10 38 10 95 0 57 -4 95 -10 95 -6
0 -10 -38 -10 -95z"/>
<path d="M890 795 c0 -114 18 -128 22 -17 l3 77 37 -77 c52 -110 68 -106 68
17 0 57 -4 95 -10 95 -6 0 -10 -33 -11 -77 l0 -78 -36 78 c-26 56 -41 77 -54
77 -17 0 -19 -9 -19 -95z"/>
<path d="M1190 880 c0 -5 11 -10 25 -10 25 0 25 -1 25 -85 0 -69 3 -85 15 -85
12 0 15 16 15 85 0 84 0 85 25 85 14 0 25 5 25 10 0 6 -28 10 -65 10 -37 0
-65 -4 -65 -10z"/>
<path d="M1350 795 c0 -57 4 -95 10 -95 6 0 10 38 10 95 0 57 -4 95 -10 95 -6
0 -10 -38 -10 -95z"/>
<path d="M1400 880 c0 -5 11 -10 25 -10 25 0 25 -1 25 -85 0 -50 4 -85 10 -85
6 0 10 35 10 85 l0 85 30 0 c17 0 30 5 30 10 0 6 -28 10 -65 10 -37 0 -65 -4
-65 -10z"/>
<path d="M1550 806 c0 -76 2 -86 22 -100 30 -21 54 -20 78 4 17 17 20 33 20
100 0 44 -4 80 -9 80 -5 0 -11 -36 -13 -80 -2 -58 -7 -84 -18 -90 -21 -13 -26
-12 -44 6 -12 11 -16 36 -16 90 0 43 -4 74 -10 74 -6 0 -10 -35 -10 -84z"/>
<path d="M1690 880 c0 -5 11 -10 25 -10 28 0 28 1 25 -97 -1 -60 1 -73 14 -73
13 0 16 14 16 85 0 84 0 85 25 85 14 0 25 5 25 10 0 6 -28 10 -65 10 -37 0
-65 -4 -65 -10z"/>
<path d="M1840 795 l0 -95 55 0 c30 0 55 5 55 10 0 6 -18 10 -40 10 -39 0 -40
1 -40 35 0 33 2 35 35 35 19 0 35 5 35 10 0 6 -16 10 -35 10 -32 0 -35 2 -35
30 0 28 2 30 40 30 22 0 40 5 40 10 0 6 -25 10 -55 10 l-55 0 0 -95z"/>
<path d="M730 571 c0 -5 -20 -12 -45 -15 -29 -5 -45 -12 -45 -22 0 -17 1 -17
36 1 16 8 55 15 87 15 51 0 59 -3 66 -22 8 -21 10 -22 16 -4 9 22 -9 36 -47
36 -15 0 -30 5 -33 10 -8 12 -35 13 -35 1z"/>
<path d="M225 560 c-3 -5 -24 -10 -46 -10 -28 0 -39 -4 -36 -12 2 -7 13 -11
23 -8 10 3 54 5 97 5 42 0 77 3 77 8 0 4 -15 7 -34 7 -19 0 -38 5 -41 10 -3 6
-12 10 -20 10 -8 0 -17 -4 -20 -10z"/>
<path d="M480 556 c0 -8 -15 -17 -35 -20 -22 -4 -35 -13 -35 -22 0 -12 8 -13
36 -8 30 5 35 4 29 -7 -18 -31 -50 -59 -67 -59 -10 0 -18 -4 -18 -10 0 -24 50
-8 77 24 l28 35 25 -37 c32 -47 40 -53 62 -41 22 12 24 29 3 29 -20 0 -86 60
-79 72 3 5 18 8 32 6 15 -2 29 2 32 7 3 6 -12 11 -32 13 -25 2 -38 8 -38 18 0
8 -4 14 -10 14 -5 0 -10 -6 -10 -14z"/>
<path d="M920 561 c-14 -4 -25 -13 -25 -21 0 -16 6 -17 44 -5 17 5 22 4 19 -6
-3 -8 -13 -15 -24 -17 -15 -2 -19 -12 -20 -50 l-2 -47 84 0 84 0 0 32 c0 17 3
38 6 47 5 12 -2 18 -25 22 -42 9 -40 24 3 17 24 -4 35 -1 39 10 4 11 -5 16
-40 21 -56 7 -110 6 -143 -3z m95 -31 c-3 -5 -13 -10 -21 -10 -8 0 -14 5 -14
10 0 6 9 10 21 10 11 0 17 -4 14 -10z m-7 -60 c7 -11 16 -20 21 -20 5 0 7 9 4
20 -4 14 0 20 11 20 10 0 16 -9 16 -25 0 -22 -4 -25 -40 -25 -36 0 -40 3 -40
25 0 30 11 32 28 5z m-48 -10 c0 -11 -7 -20 -15 -20 -8 0 -15 9 -15 20 0 11 7
20 15 20 8 0 15 -9 15 -20z"/>
<path d="M1168 551 c-34 -19 -36 -31 -5 -31 l22 -1 -22 -18 c-13 -11 -23 -25
-23 -32 0 -10 3 -10 12 -1 20 20 27 14 31 -25 l4 -38 1 44 c2 34 5 42 17 37
18 -7 20 5 3 22 -10 10 -10 15 2 22 22 14 28 -70 6 -86 -31 -22 -17 -31 32
-19 39 11 50 10 63 -1 9 -8 23 -12 32 -8 14 5 11 10 -13 30 -29 25 -29 25 -15
72 8 26 15 48 15 50 0 7 -61 1 -90 -9 -20 -7 -35 -8 -39 -2 -3 6 -17 3 -33 -6z
m132 -11 c0 -5 -12 -10 -27 -10 -22 0 -25 2 -13 10 20 13 40 13 40 0z m0 -34
c0 -2 -11 -6 -25 -8 -14 -3 -25 -1 -25 3 0 5 11 9 25 9 14 0 25 -2 25 -4z
m-36 -41 c-6 -16 -24 -21 -24 -7 0 11 11 22 21 22 5 0 6 -7 3 -15z m26 -5 c0
-5 -5 -10 -11 -10 -5 0 -7 5 -4 10 3 6 8 10 11 10 2 0 4 -4 4 -10z"/>
<path d="M1435 550 c5 -16 2 -20 -18 -20 -21 0 -24 -4 -20 -21 6 -21 7 -21 20
-3 11 15 30 19 88 22 67 4 75 2 75 -14 0 -13 3 -15 11 -7 15 15 3 33 -21 33
-13 0 -17 5 -14 15 8 20 -3 19 -24 -1 -14 -15 -17 -15 -27 0 -15 20 -26 21
-19 1 4 -9 0 -15 -9 -15 -8 0 -17 7 -21 15 -8 23 -28 18 -21 -5z"/>
<path d="M1650 493 l0 -78 18 30 c11 17 26 36 35 43 13 11 14 18 5 32 -7 10
-18 16 -26 12 -10 -3 -13 -1 -8 6 10 17 19 15 46 -8 25 -21 97 -29 84 -9 -4 6
-19 9 -36 5 -18 -3 -27 -2 -23 4 3 6 24 10 46 10 27 0 38 -4 33 -11 -4 -7 -1
-10 6 -7 22 7 23 28 3 28 -11 0 -24 5 -31 12 -9 9 -18 8 -38 -3 -21 -11 -28
-11 -31 -1 -3 7 -21 12 -44 12 l-39 0 0 -77z m40 8 c0 -6 -4 -13 -10 -16 -5
-3 -10 1 -10 9 0 9 5 16 10 16 6 0 10 -4 10 -9z"/>
<path d="M761 524 c-17 -12 -26 -13 -34 -5 -6 6 -18 11 -26 11 -13 -1 -12 -4
3 -15 11 -8 18 -17 15 -19 -14 -13 -68 -34 -73 -29 -3 4 -6 -3 -6 -15 0 -29 7
-27 54 8 22 17 45 30 51 30 6 0 24 -13 40 -30 31 -33 60 -39 69 -15 3 10 -1
15 -12 15 -9 0 -32 9 -51 21 -32 19 -33 21 -16 40 22 23 17 24 -14 3z"/>
<path d="M181 516 c-28 -10 -31 -14 -18 -24 12 -10 19 -9 38 7 31 25 23 31
-20 17z"/>
<path d="M256 500 c-16 -16 -22 -17 -34 -7 -13 10 -14 8 -8 -10 8 -25 -23 -48
-55 -40 -14 4 -19 0 -19 -14 0 -25 23 -24 71 3 l39 22 28 -27 c31 -30 42 -33
60 -15 9 9 3 16 -30 28 -31 11 -43 21 -43 35 0 14 6 19 20 18 11 -1 27 0 35 3
13 4 13 6 0 14 -22 14 -43 11 -64 -10z"/>
<path d="M791 511 c-10 -6 -10 -10 -1 -16 13 -8 24 -1 19 14 -3 6 -10 7 -18 2z"/>
<path d="M1448 513 c-26 -7 -22 -24 5 -21 12 2 24 -1 27 -7 3 -6 -15 -11 -43
-13 -32 -2 -47 -7 -44 -15 5 -13 15 -14 65 -3 28 7 32 5 32 -13 0 -15 -7 -21
-22 -22 -22 0 -22 -1 -3 -8 24 -10 45 4 45 31 0 16 4 19 23 13 53 -16 64 -17
70 -1 5 13 -1 16 -26 16 -44 0 -67 15 -38 25 37 11 23 25 -26 24 -27 -1 -56
-3 -65 -6z"/>
<path d="M670 500 c0 -5 7 -10 15 -10 8 0 15 5 15 10 0 6 -7 10 -15 10 -8 0
-15 -4 -15 -10z"/>
<path d="M1733 493 c-24 -9 -13 -25 12 -19 22 6 25 3 25 -23 0 -24 6 -31 31
-40 24 -8 36 -8 45 0 20 17 17 31 -5 24 -10 -3 -26 -3 -35 1 -20 8 -21 44 -1
44 8 0 15 5 15 10 0 10 -65 13 -87 3z"/>
<path d="M738 474 c-5 -4 -8 -16 -8 -26 0 -10 -4 -18 -10 -18 -5 0 -10 5 -10
12 0 6 -9 3 -20 -7 -11 -10 -20 -21 -20 -24 0 -3 31 -6 69 -6 67 0 68 0 58 23
-6 12 -14 22 -19 22 -5 0 -6 -4 -3 -10 3 -5 -1 -10 -9 -10 -8 0 -16 11 -18 26
-2 14 -6 22 -10 18z"/>
<path d="M1709 440 c-14 -11 -18 -19 -11 -20 19 0 52 19 52 30 0 16 -16 12
-41 -10z"/>
</g>
</svg>
