<svg xmlns="http://www.w3.org/2000/svg" viewBox="0 0 1120 470" role="img" aria-labelledby="title desc">
  <title id="title">Temporal IoU and F1 scoring diagram</title>
  <desc id="desc">A toy timeline showing gold segments, predicted segments, overlap, union, temporal matches, precision, recall, and F1.</desc>
  <defs>
    <style>
      .bg{fill:#fffdf8}.ink{fill:#1c1914}.muted{fill:#5c564c}.axis{stroke:#d9d0c2;stroke-width:2}
      .gold{fill:#f0c94d}.pred{fill:#2f6f66}.miss{fill:#bfc7ca}.mark{stroke:#c45c26;stroke-width:4}
      .box{fill:#f7f4ef;stroke:#d9d0c2;stroke-width:1.4}.txt{font:16px "IBM Plex Sans",Arial,sans-serif}
      .mono{font:15px "IBM Plex Mono",monospace}.small{font-size:13px}.label{font-weight:700}
    </style>
  </defs>
  <rect width="1120" height="470" rx="18" class="bg"/>
  <text x="42" y="48" class="txt label ink">Toy segment scoring: match time first, then count precision and recall</text>
  <text x="42" y="78" class="txt muted">IoU = overlap / union. One predicted segment can match one gold segment if IoU >= 0.75.</text>

  <line x1="150" y1="132" x2="1030" y2="132" class="axis"/>
  <line x1="150" y1="244" x2="1030" y2="244" class="axis"/>
  <text x="54" y="138" class="txt label ink">Gold</text>
  <text x="54" y="250" class="txt label ink">Pred</text>
  <g class="mono small muted">
    <text x="146" y="112">0s</text>
    <text x="410" y="112">3s</text>
    <text x="674" y="112">6s</text>
    <text x="1018" y="112">10s</text>
  </g>

  <rect x="150" y="118" width="264" height="38" rx="7" class="gold"/><text x="268" y="142" class="mono ink">G0</text>
  <rect x="414" y="118" width="264" height="38" rx="7" class="gold"/><text x="532" y="142" class="mono ink">G1</text>
  <rect x="678" y="118" width="352" height="38" rx="7" class="gold"/><text x="838" y="142" class="mono ink">G2</text>

  <rect x="150" y="230" width="246" height="38" rx="7" class="pred"/><text x="259" y="254" class="mono" fill="#fff">P0</text>
  <rect x="396" y="230" width="238" height="38" rx="7" class="pred"/><text x="501" y="254" class="mono" fill="#fff">P1</text>
  <rect x="634" y="230" width="220" height="38" rx="7" class="miss"/><text x="730" y="254" class="mono ink">P2</text>
  <rect x="854" y="230" width="176" height="38" rx="7" class="miss"/><text x="928" y="254" class="mono ink">P3</text>

  <path d="M150 164v44M396 164v44" class="mark"/>
  <path d="M414 164v44M634 164v44" class="mark"/>
  <text x="158" y="188" class="txt small ink">P0 and G0 overlap enough</text>
  <text x="158" y="206" class="txt small muted">IoU approx 0.93 -> match</text>
  <text x="424" y="188" class="txt small ink">P1 and G1 overlap enough</text>
  <text x="424" y="206" class="txt small muted">IoU approx 0.78 -> match</text>
  <text x="704" y="198" class="txt small muted">P2/P3 do not pass threshold</text>

  <rect x="70" y="320" width="980" height="104" rx="14" class="box"/>
  <text x="102" y="356" class="mono ink">m = 2 temporal matches</text>
  <text x="102" y="386" class="mono ink">n_pred = 4, n_gold = 3</text>
  <text x="438" y="356" class="mono ink">Precision = m / n_pred = 0.50</text>
  <text x="438" y="386" class="mono ink">Recall = m / n_gold = 0.67</text>
  <text x="790" y="372" class="mono label ink">F1 = 2PR/(P+R) = 0.571</text>
</svg>
