<svg xmlns="http://www.w3.org/2000/svg" width="1180" height="390" viewBox="0 0 1180 390" role="img" aria-label="Visual inputs compared: raw frames, proxy overlay, temporal collage, neighbor sheets, and wrist-guided crop">
  <style>
    .bg{fill:#fffaf1}.card{fill:#fffaf6;stroke:#d8c8b1;stroke-width:1.5}.title{font:700 18px Inter,Arial,sans-serif;fill:#141414}.sub{font:13px Inter,Arial,sans-serif;fill:#4f4a42}.tiny{font:11px Inter,Arial,sans-serif;fill:#554b40}.label{font:12px Inter,Arial,sans-serif;fill:#1f1d1a}.good{fill:#2f7d70}.gold{fill:#f2c84b}.pred{fill:#2f7d70}.muted{fill:#d9d5cb}.warn{fill:#c85e25}.ink{stroke:#2f7d70;stroke-width:4;fill:none;stroke-linecap:round}.arrow{stroke:#c85e25;stroke-width:4;fill:none;marker-end:url(#arrow)}
  </style>
  <defs><marker id="arrow" viewBox="0 0 10 10" refX="8" refY="5" markerWidth="6" markerHeight="6" orient="auto-start-reverse"><path d="M0 0 L10 5 L0 10z" fill="#c85e25"/></marker></defs>
  <rect class="bg" width="1180" height="390" rx="18"/>
  <text x="38" y="44" class="title">Visual inputs are different objects, not synonyms</text>
  <text x="38" y="70" class="sub">The ablation name should describe what the VLM actually sees.</text>

  <g transform="translate(38,105)">
    <rect class="card" width="205" height="235" rx="12"/>
    <text x="18" y="34" class="title">Raw frames</text>
    <text x="18" y="58" class="sub">current segment only</text>
    <g transform="translate(22,82)">
      <rect x="0" y="0" width="46" height="34" fill="#e8e1d4"/><rect x="54" y="0" width="46" height="34" fill="#d9d5cb"/><rect x="108" y="0" width="46" height="34" fill="#cfc9bd"/>
      <rect x="0" y="42" width="46" height="34" fill="#d9d5cb"/><rect x="54" y="42" width="46" height="34" fill="#e8e1d4"/><rect x="108" y="42" width="46" height="34" fill="#d9d5cb"/>
    </g>
    <text x="18" y="190" class="label">Best fixed-boundary label</text>
    <text x="18" y="212" class="tiny">Gemini Acc 55.7% with 27B</text>
  </g>

  <g transform="translate(263,105)">
    <rect class="card" width="205" height="235" rx="12"/>
    <text x="18" y="34" class="title">Proxy overlay</text>
    <text x="18" y="58" class="sub">raw + approximate marks</text>
    <g transform="translate(30,82)">
      <rect x="0" y="0" width="145" height="88" rx="8" fill="#e8e1d4"/>
      <circle cx="58" cy="47" r="18" fill="#c85e25" opacity=".22"/><circle cx="94" cy="48" r="18" fill="#c85e25" opacity=".22"/>
      <path class="ink" d="M48 55 C62 30, 82 30, 99 55"/>
      <path class="arrow" d="M35 26 C55 16, 72 20, 88 30"/>
      <path class="arrow" d="M112 30 C98 18, 83 16, 68 24"/>
    </g>
    <text x="18" y="190" class="label">Not measured hand pose</text>
    <text x="18" y="212" class="tiny">27B 50.6%; 397B 48.5%</text>
  </g>

  <g transform="translate(488,105)">
    <rect class="card" width="205" height="235" rx="12"/>
    <text x="18" y="34" class="title">Temporal collage</text>
    <text x="18" y="58" class="sub">past / current / future</text>
    <g transform="translate(24,83)">
      <rect x="0" y="0" width="45" height="82" rx="8" class="muted"/><rect x="55" y="0" width="45" height="82" rx="8" class="pred"/><rect x="110" y="0" width="45" height="82" rx="8" class="muted"/>
      <text x="8" y="107" class="tiny">past</text><text x="55" y="107" class="tiny">current</text><text x="112" y="107" class="tiny">future</text>
    </g>
    <text x="18" y="190" class="label">Adds context after bounds</text>
    <text x="18" y="212" class="tiny">Often pollutes current label</text>
  </g>

  <g transform="translate(713,105)">
    <rect class="card" width="205" height="235" rx="12"/>
    <text x="18" y="34" class="title">Neighbor sheets</text>
    <text x="18" y="58" class="sub">prev / current / next</text>
    <g transform="translate(22,84)">
      <rect x="0" y="0" width="44" height="62" rx="7" class="muted"/><text x="13" y="84" class="tiny">prev</text>
      <rect x="58" y="0" width="44" height="62" rx="7" class="pred"/><text x="62" y="84" class="tiny">cur</text>
      <rect x="116" y="0" width="44" height="62" rx="7" class="muted"/><text x="125" y="84" class="tiny">next</text>
      <line x1="50" y1="31" x2="54" y2="31" stroke="#4f4a42"/><line x1="108" y1="31" x2="112" y2="31" stroke="#4f4a42"/>
    </g>
    <text x="18" y="190" class="label">Looks helpful, but risky</text>
    <text x="18" y="212" class="tiny">May describe neighboring action</text>
  </g>

  <g transform="translate(938,105)">
    <rect class="card" width="205" height="235" rx="12"/>
    <text x="18" y="34" class="title">Wrist-guided crop</text>
    <text x="18" y="58" class="sub">crop from estimated tracks</text>
    <g transform="translate(31,82)">
      <rect x="0" y="0" width="144" height="88" rx="8" fill="#e8e1d4"/>
      <rect x="28" y="22" width="88" height="42" rx="7" fill="none" stroke="#2f7d70" stroke-width="4"/>
      <circle cx="54" cy="43" r="18" fill="#c85e25"/><circle cx="96" cy="43" r="18" fill="#c85e25"/>
    </g>
    <text x="18" y="190" class="label">Needs reliable hand signal</text>
    <text x="18" y="212" class="tiny">HaWoR crop: Gemini Acc 50.9%</text>
  </g>
</svg>
