<svg xmlns="http://www.w3.org/2000/svg" viewBox="0 0 1240 560" role="img" aria-labelledby="title desc">
  <title id="title">Visual input taxonomy for EgoANT WGO experiments</title>
  <desc id="desc">A taxonomy comparing contact sheets, temporal collages, neighbor sheets, and hand crops.</desc>
  <defs>
    <style>
      .bg{fill:#fffdf8}.ink{fill:#1c1914}.muted{fill:#5c564c}.card{fill:#f7f4ef;stroke:#d9d0c2;stroke-width:1.4}
      .tile{fill:#e8e2d6;stroke:#fffdf8;stroke-width:2}.stamp{fill:#f0c94d}.hand{fill:#c45c26}.focus{fill:#2f6f66}.bad{fill:#bfc7ca}
      .txt{font:16px "IBM Plex Sans",Arial,sans-serif}.mono{font:13px "IBM Plex Mono",monospace}.small{font-size:13px}.label{font-weight:700}
    </style>
  </defs>
  <rect width="1240" height="560" rx="18" class="bg"/>
  <text x="42" y="50" class="txt label ink">Visual inputs are different objects, not synonyms</text>
  <text x="42" y="82" class="txt muted">Each ablation changes what the VLM sees, and often changes the task difficulty.</text>

  <g transform="translate(42,122)">
    <rect width="268" height="350" rx="14" class="card"/>
    <text x="20" y="36" class="txt label ink">Contact sheet</text>
    <text x="20" y="64" class="txt small muted">20 timestamped frames</text>
    <text x="20" y="84" class="txt small muted">used for segmentation</text>
    <g transform="translate(24,112)">
      <rect x="0" y="0" width="42" height="30" class="tile"/><rect x="48" y="0" width="42" height="30" class="tile"/><rect x="96" y="0" width="42" height="30" class="tile"/><rect x="144" y="0" width="42" height="30" class="tile"/>
      <rect x="0" y="36" width="42" height="30" class="tile"/><rect x="48" y="36" width="42" height="30" class="tile"/><rect x="96" y="36" width="42" height="30" class="tile"/><rect x="144" y="36" width="42" height="30" class="tile"/>
      <rect x="0" y="72" width="42" height="30" class="tile"/><rect x="48" y="72" width="42" height="30" class="tile"/><rect x="96" y="72" width="42" height="30" class="tile"/><rect x="144" y="72" width="42" height="30" class="tile"/>
      <rect x="0" y="108" width="42" height="30" class="tile"/><rect x="48" y="108" width="42" height="30" class="tile"/><rect x="96" y="108" width="42" height="30" class="tile"/><rect x="144" y="108" width="42" height="30" class="tile"/>
      <rect x="5" y="5" width="27" height="9" class="stamp"/><rect x="53" y="5" width="27" height="9" class="stamp"/><rect x="101" y="5" width="27" height="9" class="stamp"/>
    </g>
    <text x="20" y="300" class="mono ink">Best for: boundaries</text>
  </g>

  <g transform="translate(340,122)">
    <rect width="268" height="350" rx="14" class="card"/>
    <text x="20" y="36" class="txt label ink">Temporal collage</text>
    <text x="20" y="64" class="txt small muted">past / current / future</text>
    <text x="20" y="84" class="txt small muted">full-frame grids for labels</text>
    <rect x="28" y="125" width="60" height="110" rx="8" class="bad"/><text x="38" y="260" class="mono ink">past</text>
    <rect x="104" y="125" width="60" height="110" rx="8" class="focus"/><text x="105" y="260" class="mono ink">current</text>
    <rect x="180" y="125" width="60" height="110" rx="8" class="bad"/><text x="188" y="260" class="mono ink">future</text>
    <text x="20" y="300" class="mono ink">Lower label Acc</text>
  </g>

  <g transform="translate(638,122)">
    <rect width="268" height="350" rx="14" class="card"/>
    <text x="20" y="36" class="txt label ink">Neighbor sheets</text>
    <text x="20" y="64" class="txt small muted">previous / current / next</text>
    <text x="20" y="84" class="txt small muted">segment sheets</text>
    <rect x="28" y="132" width="62" height="78" rx="8" class="bad"/>
    <rect x="104" y="132" width="62" height="78" rx="8" class="focus"/>
    <rect x="180" y="132" width="62" height="78" rx="8" class="bad"/>
    <path d="M94 171h8M170 171h8" stroke="#5c564c" stroke-width="2"/>
    <text x="32" y="236" class="mono ink">prev</text><text x="108" y="236" class="mono ink">cur</text><text x="185" y="236" class="mono ink">next</text>
    <text x="20" y="300" class="mono ink">Context pollution</text>
  </g>

  <g transform="translate(936,122)">
    <rect width="268" height="350" rx="14" class="card"/>
    <text x="20" y="36" class="txt label ink">Hand crop</text>
    <text x="20" y="64" class="txt small muted">crop around hands/wrists</text>
    <text x="20" y="84" class="txt small muted">before labeling</text>
    <rect x="50" y="125" width="168" height="120" rx="10" class="tile"/>
    <circle cx="102" cy="182" r="25" class="hand"/><circle cx="166" cy="182" r="25" class="hand"/>
    <rect x="74" y="151" width="120" height="66" rx="8" fill="none" stroke="#2f6f66" stroke-width="5"/>
    <text x="20" y="300" class="mono ink">Requires wrist tracks</text>
  </g>
</svg>
